<svg aria-hidden="true" style="position:absolute;width:0;height:0;overflow:hidden" xmlns="http://www.w3.org/2000/svg">
  <defs>
    <symbol id="logo" viewBox="0 0 32 32">
      <path fill="#040031" style="fill:var(--color1, #040031)" d="M7.25.475c-.014.168-.031.336-.05.503l-.006.058c-.016.137-.016.137-.044.165a2.134 2.134 0 0 0-.069.404c-.006.046-.006.046-.031.096l-.01.158a5.613 5.613 0 0 1-.053.5l-.01.07c-.024.166-.024.166-.053.222a6.682 6.682 0 0 0-.018.199l-.005.06-.015.19-.019.249a1.057 1.057 0 0 0-.004.058.869.869 0 0 1-.039.22 9.718 9.718 0 0 0-.016.22l-.013.211-.01.154-.005.093c-.007.073-.007.073-.032.123-.006.072-.01.143-.013.214l-.003.069-.01.234-.003.082c-.207 1.926-.207 1.926.055 3.75l.013.145.006.088.013.184.006.088.005.081c.003.064.003.064.032.114a4.19 4.19 0 0 1 .028.252l.015.15.014.145.009.088c.002.064.002.064.034.091.008.042.013.084.019.126.047.34.112.662.213.99a5.4 5.4 0 0 1 .072.278c.029.121.061.238.103.355.018.053.034.106.049.16.085.284.19.567.318.835.018.037.034.075.049.114.035.086.076.168.118.251l.027.053c.133.262.264.521.433.763l.073.113c.067.102.142.197.219.291.033.046.033.046.033.096h.05a.825.825 0 0 1 .072.092l.04.056.038.052c.053.069.105.13.167.191.058.059.058.059.083.134.033.018.066.034.1.05a4.122 4.122 0 0 1 .25.2v.05l.055.019a.749.749 0 0 1 .192.128c.082.068.162.127.256.177.061.034.12.072.178.111.215.137.428.249.668.336.076.029.076.029.15.067.082.04.16.064.248.087.094.025.185.052.275.088.107.041.213.059.326.076l.12.019.057.009c.057.01.113.023.169.037.126.03.254.034.383.041.073.006.073.006.123.031.046.003.092.003.139.003H14.069c.057.003.057.003.083-.028.036-.005.072-.008.109-.011l.069-.006c.024-.003.049-.004.074-.006a5.02 5.02 0 0 0 .611-.087c.079-.015.155-.023.236-.029.106-.008.194-.032.293-.069.09-.029.183-.043.276-.058.058-.008.058-.008.107-.036.034-.004.069-.007.103-.009a.935.935 0 0 0 .27-.07c.131-.051.266-.088.403-.117.148-.032.291-.079.435-.126l.081-.026c.146-.047.289-.098.43-.156.06-.024.12-.043.183-.06a2.38 2.38 0 0 0 .295-.111l.103-.034c.239-.078.468-.173.695-.28.09-.041.181-.078.273-.113.06-.024.06-.024.138-.066.066-.031.066-.031.166-.031v-.05l.041-.015c.16-.061.311-.134.462-.213a2.22 2.22 0 0 1 .249-.111c.096-.034.183-.08.272-.129.173-.095.351-.179.529-.262.078-.036.155-.073.232-.113.198-.1.401-.189.606-.273l.187-.079c.205-.088.404-.157.622-.206a3.93 3.93 0 0 0 .216-.075c.094-.028.186-.043.284-.053l.056-.007c.356-.037.701-.039 1.012.161a.919.919 0 0 1 .302.594c.007.094.008.186.004.279l-.001.049c-.013.189-.077.368-.132.548l-.045.148a3.71 3.71 0 0 1-.121.355h-.05l-.005.083c-.019.144-.082.263-.145.392l-.079.167-.088.185-.108.231c-.099.214-.204.424-.317.631a1.525 1.525 0 0 0-.133.311h-.05l-.006.049a1.469 1.469 0 0 1-.215.452.907.907 0 0 0-.071.159c-.033.09-.033.09-.083.14a3.341 3.341 0 0 1-.216.471c-.104.194-.201.39-.294.589-.063.134-.127.266-.194.397-.088.175-.172.352-.256.53-.03.064-.06.127-.091.189h-.05l-.008.065a.85.85 0 0 1-.094.242l-.047.091-.025.049a8.058 8.058 0 0 0-.159.339c-.061.132-.061.132-.117.188l-.028.08c-.045.126-.109.24-.173.357a3.221 3.221 0 0 0-.149.314l-.084.169c-.076.15-.147.302-.215.456h-.05l-.009.042c-.017.063-.04.122-.064.183l-.026.064a2.364 2.364 0 0 1-.076.161h-.05l-.005.075a.541.541 0 0 1-.111.245c-.032.051-.056.1-.08.156-.06.138-.125.274-.19.41l-.035.073c-.066.137-.133.274-.201.41l-.069.139c-.106.214-.106.214-.166.316a.474.474 0 0 0-.067.175h-.05l-.009.042a1.69 1.69 0 0 1-.067.189 4.653 4.653 0 0 0-.027.067l-.021.051h-.05a.475.475 0 0 0-.007.04c-.024.081-.063.154-.102.229-.072.14-.072.14-.13.286-.038.11-.096.207-.154.307a.557.557 0 0 0-.058.163h-.05l-.013.041c-.045.14-.1.273-.164.405l-.03.062c-.078.162-.162.322-.247.48-.097.182-.185.367-.273.553-.073.154-.15.305-.232.456-.065.12-.122.242-.178.367a9.12 9.12 0 0 1-.169.344 3.711 3.711 0 0 0-.108.23 2.96 2.96 0 0 1-.126.252c-.096.177-.183.358-.27.541s-.175.363-.267.544h-.05l-.007.067a.501.501 0 0 1-.107.218l-.049.066-.038.049-.125-.025a1.384 1.384 0 0 1-.056-.399v-.503c.001-.12.001-.12.029-.148.003-.039.006-.078.007-.116l.003-.071.003-.075c.002-.049.003-.098.006-.146l.002-.066c.005-.051.005-.051.03-.076l.022-.151c.017-.116.04-.216.085-.323a.95.95 0 0 0 .041-.177c.043-.256.116-.504.201-.748l.05-.153c.037-.11.078-.216.125-.322l.047-.13c.054-.151.115-.298.178-.445l.038-.09c.063-.151.127-.296.212-.434a4.78 4.78 0 0 0 .222-.394c.111-.224.236-.439.363-.653.068-.114.131-.23.188-.351.04-.08.087-.154.134-.23.091-.147.17-.299.245-.454a2.39 2.39 0 0 1 .172-.293c.028-.054.055-.109.081-.164.073-.151.157-.292.246-.434.094-.152.177-.309.255-.469a7.09 7.09 0 0 1 .216-.392c.096-.166.188-.332.272-.506.04-.081.084-.158.13-.235h.05l.007-.052a.915.915 0 0 1 .112-.244l.061-.106.034-.059c.084-.148.164-.299.244-.45.075-.139.153-.276.235-.411.037-.062.072-.125.106-.188.054-.099.11-.198.167-.295.056-.096.109-.191.157-.291.104-.209.218-.411.337-.611.041-.072.078-.145.114-.219.072-.136.145-.269.225-.4.122-.202.233-.407.325-.625h.05l.009-.043a.829.829 0 0 1 .081-.18l.041-.073.171-.3a36.488 36.488 0 0 1 .299-.536c.254-.419.254-.419.275-.894l-.009-.067c-.026-.172-.067-.348-.215-.457-.158-.086-.299-.085-.477-.083h-.081a.923.923 0 0 0-.368.058l-.078.006c-.121.024-.215.075-.324.132-.06.03-.116.055-.18.076a1.122 1.122 0 0 0-.248.134.392.392 0 0 1-.171.052v.05l-.047.022c-.187.09-.354.199-.522.32-.178.127-.178.127-.262.145l-.044.012-.025.075h-.075v.05c-.053.038-.053.038-.125.081a2.742 2.742 0 0 0-.247.167c-.36.276-.36.276-.478.276v.05l-.125.025v.05c-.043.034-.043.034-.102.072a5.111 5.111 0 0 1-.251.151c-.058.034-.114.07-.171.106l-.07.045-.131.084-.162.104-.053.034c-.126.08-.126.08-.21.08v.05a.291.291 0 0 1-.175.05v.05l-.039.021-.183.101-.068.038a35.33 35.33 0 0 0-.332.184c-.182.102-.364.202-.552.294-.107.053-.212.11-.317.168-.075.04-.149.078-.227.11-.06.026-.114.051-.169.085a1.646 1.646 0 0 1-.211.103 15.89 15.89 0 0 0-.426.191l-.063.028-.183.081a3.718 3.718 0 0 0-.229.111c-.095.049-.19.084-.292.116a2.11 2.11 0 0 0-.19.079 7.252 7.252 0 0 1-.314.136l-.079.032a.614.614 0 0 1-.226.023v.05l-.152.059-.085.033a3.477 3.477 0 0 1-.263.082l-.167.061c-.137.049-.273.09-.415.122-.069.016-.069.016-.138.041-.075.025-.15.047-.226.067l-.083.023-.086.023-.085.023c-.519.139-.519.139-.705.169-.08.008-.08.008-.145.047-.09.02-.181.034-.272.049l-.081.014a8.086 8.086 0 0 1-.581.073c-.091 0-.091 0-.166.04-.06.006-.119.009-.18.012l-.055.003-.174.009-.173.009-.108.006a1.245 1.245 0 0 0-.236.035c-.111.006-.223.005-.335.005h-.098a7.641 7.641 0 0 1-.786-.049 7.984 7.984 0 0 0-.308-.025c-.049-.006-.049-.006-.074-.031a1.836 1.836 0 0 0-.107-.015 4.593 4.593 0 0 1-.838-.169l-.171-.05-.114-.032-.052-.015a2.51 2.51 0 0 1-.319-.12l-.209-.073a1.168 1.168 0 0 1-.191-.102 4.372 4.372 0 0 0-.19-.073.774.774 0 0 1-.16-.102c-.049-.021-.049-.021-.098-.036a.698.698 0 0 1-.226-.139 3.076 3.076 0 0 0-.152-.076 1.138 1.138 0 0 1-.173-.099v-.05a1.054 1.054 0 0 1-.275-.15v-.05l-.042-.02a1.68 1.68 0 0 1-.433-.33 4.993 4.993 0 0 0-.11-.095 2.42 2.42 0 0 1-.245-.251 5.218 5.218 0 0 0-.341-.372c-.062-.064-.106-.133-.155-.206l-.05-.025v-.075l-.075-.025c-.04-.055-.04-.055-.083-.127a3.597 3.597 0 0 0-.21-.306 1.644 1.644 0 0 1-.107-.168 12.696 12.696 0 0 0-.169-.276l-.079-.13a8.863 8.863 0 0 0-.079-.128l-.048-.079-.044-.072c-.031-.064-.031-.064-.031-.164h-.05a3.148 3.148 0 0 1-.181-.402c-.027-.069-.061-.133-.095-.198-.032-.065-.055-.132-.08-.2a1.333 1.333 0 0 0-.07-.148 1.642 1.642 0 0 1-.105-.265c-.023-.069-.049-.137-.075-.206-.038-.102-.072-.206-.107-.309l-.023-.07a9.756 9.756 0 0 1-.145-.478 2.67 2.67 0 0 0-.065-.197.648.648 0 0 1-.031-.277h-.05c-.099-.41-.099-.41-.126-.575a1.376 1.376 0 0 0-.061-.235c-.044-.121-.06-.245-.077-.373-.007-.067-.007-.067-.036-.118-.008-.071-.013-.143-.018-.214-.001-.059-.001-.059-.032-.086a7.07 7.07 0 0 1-.036-.21l-.018-.116-.01-.061a2.876 2.876 0 0 0-.024-.128 3.015 3.015 0 0 1-.051-.537l-.005-.166-.002-.073c-.001-.059-.001-.059-.029-.109a1.974 1.974 0 0 1-.007-.133l-.003-.081-.003-.085-.006-.165a1.78 1.78 0 0 1-.002-.074c-.003-.066-.003-.066-.03-.138a1.605 1.605 0 0 1-.005-.12l-.002-.074-.001-.081-.002-.084-.003-.178-.005-.264a31.838 31.838 0 0 1-.006-.437l-.003-.177a22.715 22.715 0 0 1-.004-.261l-.002-.078a1.607 1.607 0 0 1 .064-.457c.016-.058.027-.114.037-.173.117-.534.526-1.034.869-1.444a.853.853 0 0 0 .087-.149l.1-.1.025-.05h.05l.05-.125h.05l.025-.1h.05l.017-.039c.046-.085.106-.156.166-.231.072-.09.143-.18.21-.274.056-.077.111-.142.183-.206h.05l.007-.044a.371.371 0 0 1 .099-.155l.044-.049c.037-.039.074-.077.112-.114.058-.059.11-.12.161-.186.137-.169.286-.326.436-.485a10.565 10.565 0 0 0 .363-.407l.04-.048c.038-.038.038-.038.113-.063.018-.033.034-.066.05-.1.038-.044.038-.044.075-.075h.05l.018-.042c.04-.072.089-.128.144-.189l.06-.067c.052-.051.052-.051.102-.051l.017-.042a.884.884 0 0 1 .162-.194l.038-.038.08-.079.122-.122.077-.077.037-.037c.086-.085.086-.085.142-.085l.016-.042a.548.548 0 0 1 .145-.151c.074-.06.138-.13.204-.198.036-.037.073-.073.111-.109h.05l.016-.042c.048-.08.116-.132.188-.189.119-.097.23-.198.335-.31.037-.034.037-.034.087-.034v-.05l.109-.07a.49.49 0 0 0 .105-.108.31.31 0 0 1 .186-.122v-.05h.05l.025-.075c.034-.034.034-.034.077-.069l.048-.04.05-.042.094-.083c.103-.09.208-.176.314-.262.061-.05.117-.103.175-.157.08-.072.132-.093.242-.074z"/>
      <path fill="#040031" style="fill:var(--color1, #040031)" d="m19.525 9.725.052.028c.127.08.189.181.242.322.03.238-.049.401-.169.6h-.05l-.015.043c-.049.079-.118.118-.196.166l-.048.03a6.089 6.089 0 0 1-.416.236l-.071.036c-.31.151-.642.249-.973.346a2.613 2.613 0 0 0-.169.06c-.087.033-.087.033-.137.033v.05h.075v.05l.336-.011.097-.003.092-.003.085-.003c.063.002.063.002.09-.03.034-.005.069-.008.103-.011.13-.013.247-.046.369-.091a.946.946 0 0 1 .242-.037.768.768 0 0 0 .185-.065c.122-.05.252-.079.378-.112.131-.036.252-.079.375-.137a.991.991 0 0 1 .169-.058c.148-.043.288-.103.43-.164l.17-.073.089-.038c.091-.039.183-.074.275-.11.157-.061.307-.133.456-.212a.888.888 0 0 1 .259-.091c.032-.046.032-.046.05-.1l.05-.075H22l.018-.041c.04-.074.09-.136.143-.201l.059-.074c.055-.059.055-.059.13-.084l.025-.075h.05v-.05c.128-.103.256-.173.422-.162a.64.64 0 0 1 .228.112v.05h.05v.05h.05l.075.175.098-.008.129-.009.064-.005a.555.555 0 0 1 .359.073.574.574 0 0 1 .176.398 1.054 1.054 0 0 1-.026.202.99.99 0 0 0 .25-.108c.2-.114.418-.207.65-.192a.721.721 0 0 1 .35.3c.012.062.012.062.015.127a.698.698 0 0 0 .035.198c.332-.077.332-.077.65-.2l.077-.035c.178-.087.306-.188.441-.33a1.66 1.66 0 0 1 .758-.46l.048-.014c.335-.088.641-.024.952.114a.39.39 0 0 1 .1.075v.05l.056.005c.09.027.114.071.169.145l.075.05a.514.514 0 0 1 .055.267v.072c-.004.061-.004.061-.029.111-.02.114.009.171.072.262l.041.058a.631.631 0 0 1 .087.205c.173.02.276-.031.428-.112.058-.03.112-.056.174-.077a2.26 2.26 0 0 0 .433-.198c.078-.046.157-.079.24-.113l.194-.091.055-.026.116-.055.189-.089.127-.06.06-.028.057-.027.054-.025c.045-.021.088-.045.132-.068.067-.031.067-.031.168-.031v-.05c.27-.15.27-.15.4-.125.059.025.059.025.1.075.03.12.03.12 0 .2-.082.082-.177.14-.275.2l-.086.055c-.079.05-.159.098-.239.146l-.058.035-.205.121-.08.046a5.825 5.825 0 0 1-.081.047l-.227.133-.152.088c-.117.069-.235.137-.352.208a6.689 6.689 0 0 1-.32.179l-.11.058-.056.03-.172.092-.057.03-.107.057a2.54 2.54 0 0 1-.347.15l-.061.027c-.184.067-.299.09-.483.005a.5.5 0 0 1-.231-.257c-.005-.065-.005-.065-.003-.131l.001-.068a.87.87 0 0 1 .002-.051 2.16 2.16 0 0 0-.481.19 2.413 2.413 0 0 1-.163.076 2.05 2.05 0 0 0-.177.085 1.54 1.54 0 0 1-.305.11c-.049.011-.049.011-.075.04-.271.053-.514.045-.751-.108-.162-.126-.23-.296-.274-.492a2.605 2.605 0 0 1 0-.125l-.054.02-.221.08-.084.031a.996.996 0 0 1-.5-.008c-.152-.112-.253-.219-.316-.399-.143.011-.228.069-.34.15l-.053.037c-.133.094-.263.191-.393.289-.407.309-.407.309-.617.292a2.597 2.597 0 0 1-.072-.019l-.063-.015a.467.467 0 0 1-.229-.265 1.936 1.936 0 0 1-.01-.264v-.053l.001-.127a.93.93 0 0 0-.25.175l-.056.033c-.099.062-.178.141-.263.221-.055.046-.055.046-.105.046v.05h-.05v.05h-.05v.05c-.087.075-.087.075-.15.075l-.015.042c-.047.079-.113.126-.184.183l-.036.039a.486.486 0 0 1-.34.149c-.136-.006-.215-.052-.309-.15a.434.434 0 0 1-.125-.324c.02-.115.078-.214.131-.317.04-.071.04-.071.005-.146-.291.133-.291.133-.573.281a2.407 2.407 0 0 1-.323.147c-.057.021-.057.021-.117.061-.07.041-.139.063-.217.088a4.963 4.963 0 0 0-.25.095l-.049.02-.231.093a3.1 3.1 0 0 1-.471.148c-.069.016-.069.016-.137.041-.45.146-1.004.216-1.456.051l-.052-.018a1.09 1.09 0 0 1-.273-.157v-.05l-.075-.025c-.044-.051-.044-.051-.089-.116l-.046-.063c-.132-.232-.134-.567-.068-.822a1.35 1.35 0 0 1 .352-.574c.038-.046.075-.091.111-.138.045-.043.078-.053.139-.062v-.05h.05l.015-.044c.047-.077.108-.108.184-.156l.053-.046a1.65 1.65 0 0 1 .302-.168l.061-.029c.125-.059.249-.104.382-.142.056-.015.056-.015.12-.043.294-.111.76-.098 1.033.053zm-1.4.625-.055.04-.047.034c-.073.052-.073.052-.148.076-.031.075-.031.075-.05.15.135.003.253-.006.386-.035l.051-.011c.035-.008.071-.015.106-.024l.16-.035c.417-.079.417-.079.747-.321-.002-.075-.012-.111-.065-.165a.444.444 0 0 0-.246-.047l-.053.001c-.306.011-.543.162-.785.337zm9.1.55-.058.041c-.102.076-.197.15-.267.259v.075c.227-.021.437-.105.642-.201.089-.036.181-.057.275-.078.066-.017.066-.017.107-.095-.102-.096-.182-.109-.322-.113a.61.61 0 0 0-.378.113zM14.95 8.4l.072.017c.218.091.348.249.453.458.022.209.016.372-.105.547a1.284 1.284 0 0 1-.22.203l-.083.072C15 9.75 15 9.75 14.95 9.75v.05h-.05l-.019.042c-.048.09-.111.168-.172.249l-.034.059.025.075.04-.025a4.299 4.299 0 0 1 1.41-.575l.06-.014c.186-.039.371-.045.561-.044l.158-.001h.192c.085.01.121.021.178.084v.1c-.152.051-.3.064-.459.075a2.513 2.513 0 0 0-.666.125l-.089.025c-.533.151-.992.441-1.271.932-.061.104-.13.204-.198.303-.044.063-.044.063-.066.139h-.05l-.019.078a.794.794 0 0 1-.131.247l-.025.075h-.05l-.025.125h-.05l-.007.042c-.081.262-.359.512-.586.655a.445.445 0 0 1-.335.038c-.049-.021-.049-.021-.122-.059v-.05h-.05c-.146-.258-.076-.534-.002-.805l.027-.095c.029-.112.056-.224.078-.338l.013-.065.009-.048a2.826 2.826 0 0 0-.561.3 2.62 2.62 0 0 1-.332.184c-.121.061-.237.13-.354.198a1.69 1.69 0 0 1-.203.093l-.061.037a1.4 1.4 0 0 1-.214.102l-.076.031-.073.03-.065.027c-.149.058-.26.092-.416.034a.664.664 0 0 1-.294-.261c-.01-.062-.01-.062-.015-.13l-.006-.068a.985.985 0 0 0-.004-.052 1.43 1.43 0 0 0-.454.164 1.47 1.47 0 0 1-.178.077 1.422 1.422 0 0 0-.191.085 1.46 1.46 0 0 1-.294.108c-.049.014-.097.03-.145.046a1.091 1.091 0 0 1-.489-.005v-.05l-.042-.008a.641.641 0 0 1-.308-.217c-.105-.195-.109-.431-.059-.644a1.56 1.56 0 0 1 .084-.181l.038-.072c.164-.297.366-.525.637-.728l.067-.05c.116-.084.224-.151.358-.2l.072-.027a1.37 1.37 0 0 1 1.082.092c.184.111.379.248.446.46a.64.64 0 0 1-.025.275c-.017.133-.017.133.032.252l.082.1a.507.507 0 0 1 .087.197c.173.02.276-.031.428-.112.058-.031.113-.056.175-.077.071-.025.136-.055.203-.089.15-.077.304-.145.459-.212.124-.055.243-.115.361-.183.049-.027.049-.027.138-.065l.086-.037.051-.021c.15-.075.191-.175.243-.33l.03-.099.058-.186.038-.125a1.07 1.07 0 0 1 .129-.289l.044-.114c.06-.154.137-.3.231-.436h.05l.014-.05c.115-.239.36-.435.606-.527a.419.419 0 0 1 .255.002zm-5.325 2.525-.083.047a.69.69 0 0 0-.192.228v.075a.88.88 0 0 0 .314-.083c.141-.062.284-.104.432-.145.089-.026.17-.058.254-.098v-.1c-.247-.116-.503-.067-.725.075z"/>
    </symbol>
  </defs>
</svg>